<?xml version="1.0" encoding="utf-8" ?>
<svg xmlns="http://www.w3.org/2000/svg" xmlns:xlink="http://www.w3.org/1999/xlink" width="600" height="406">
	<path fill="#C12022" d="M274.501 86.2381C275.399 85.4085 276.101 85.0642 277.304 84.8946C284.144 83.93 295.202 84.5513 302.381 84.5598C316.68 84.5766 331.038 84.2634 345.325 84.7691C344.546 85.5303 343.769 86.417 342.924 87.0962C342.356 87.1359 342.011 87.4247 341.537 87.7154L341.054 87.2956L341.444 86.6918L341.091 86.2997C336.739 85.4754 326.787 86.2013 321.663 86.1819Q307.287 86.0566 292.91 86.0884C288.109 86.0878 283.238 85.9111 278.447 86.1615C277.439 86.2142 276.691 86.3261 275.816 86.8685L274.501 86.2381Z"/>
	<path fill="#C12022" d="M209.159 85.9961Q193.183 86.2264 177.206 86.1163C173.08 86.1093 164.871 85.4849 161.252 86.4383C161.361 85.5677 161.244 85.38 161.946 84.8061C168.161 84.2076 174.763 84.5807 181.036 84.5858C190.729 84.5937 200.448 84.4546 210.135 84.7471L210.031 88.4801C210.003 88.1314 209.978 87.7798 209.93 87.4332C209.815 86.6028 209.848 86.505 209.159 85.9961Z"/>
	<path fill="#FE0000" d="M161.252 86.4383C164.871 85.4849 173.08 86.1093 177.206 86.1163Q193.183 86.2264 209.159 85.9961Q208.375 104.943 208.631 123.905C208.662 131.117 208.383 138.712 209.169 145.874C209.287 146.946 209.838 149.042 208.98 149.804C207.748 150.898 205.631 149.804 204.6 150.861C203.314 150.953 202.05 150.933 200.762 150.896C197.696 150.374 194.277 150.828 191.169 150.835C189.644 150.839 188.548 150.302 187.099 150.08C182.724 149.408 180.348 149.364 176.21 147.486C170.342 144.824 166.277 139.945 164.038 134.007C163.322 131.3 162.178 128.766 161.451 126.063C161.05 122.463 161.335 118.518 161.332 114.882C161.326 105.428 161.641 95.8801 161.252 86.4383Z"/>
	<path fill="#E01516" d="M209.159 85.9961C209.848 86.505 209.815 86.6028 209.93 87.4332C209.978 87.7798 210.003 88.1314 210.031 88.4801C210.262 102.849 210.009 117.24 210.03 131.612C210.036 135.968 210.689 146.38 209.921 149.977C210.044 149.993 210.166 150.027 210.291 150.024C210.332 150.022 210.945 149.912 211.006 149.889C212.048 149.483 233.885 127.113 236.463 124.576L251.292 109.672C255.555 105.845 259.525 101.531 263.591 97.4804C267.212 93.8728 271.39 90.2662 274.501 86.2381L275.816 86.8685C275.048 88.3829 254.928 108.534 252.478 110.532C247.637 115.479 242.853 120.59 237.771 125.288C230.503 132.356 223.548 139.748 216.225 146.761C215.302 147.646 212.058 149.83 211.835 150.743C212.624 152.09 214.916 153.036 214.892 154.66L214.411 155.289C212.856 153.658 211.202 151.449 208.954 150.856C207.494 150.973 206.062 150.92 204.6 150.861C205.631 149.804 207.748 150.898 208.98 149.804C209.838 149.042 209.287 146.946 209.169 145.874C208.383 138.712 208.662 131.117 208.631 123.905Q208.375 104.943 209.159 85.9961Z"/>
	<path fill="#FE0000" d="M275.816 86.8685C276.691 86.3261 277.439 86.2142 278.447 86.1615C283.238 85.9111 288.109 86.0878 292.91 86.0884Q307.287 86.0567 321.663 86.1819C326.787 86.2013 336.739 85.4754 341.091 86.2997L341.444 86.6918L341.054 87.2956C338.451 89.1304 336.109 91.8665 333.843 94.1213L321.09 106.842L274.129 153.779C268.839 159.079 260.833 168.461 254.313 171.713L252.593 172.446C251.533 172.815 249.518 173.425 249.071 174.54C249.032 174.637 249.013 174.74 248.984 174.84L249.027 175.172C246.119 175.315 242.984 175.386 240.085 175.174C237.904 173.932 235.181 173.64 232.913 172.322C225.968 168.285 219.932 161.053 214.411 155.289L214.892 154.66C214.916 153.036 212.624 152.09 211.835 150.743C212.058 149.83 215.302 147.646 216.225 146.761C223.548 139.748 230.503 132.356 237.771 125.288C242.853 120.59 247.637 115.479 252.478 110.532C254.928 108.534 275.048 88.3829 275.816 86.8685Z"/>
	<path fill="#E01516" d="M254.313 171.713C260.833 168.461 268.839 159.079 274.129 153.779L321.09 106.842L333.843 94.1213C336.109 91.8665 338.451 89.1304 341.054 87.2956L341.537 87.7154C342.011 87.4247 342.356 87.1359 342.924 87.0962C340.334 90.2331 336.927 93.0131 334.025 95.9026L313.879 116.006L280.547 149.269C274.389 155.424 268.366 161.823 261.981 167.737C260.035 169.539 257.894 171.479 255.499 172.65C254.617 173.048 253.74 173.475 252.84 173.829C251.559 174.179 250.28 174.551 248.984 174.84C249.013 174.74 249.032 174.637 249.071 174.54C249.518 173.425 251.533 172.815 252.593 172.446L254.313 171.713Z"/>
	<path fill="#E01516" d="M161.451 126.063C162.178 128.766 163.322 131.3 164.038 134.007C166.277 139.945 170.342 144.824 176.21 147.486C180.348 149.364 182.724 149.408 187.099 150.08C188.548 150.302 189.644 150.839 191.169 150.835C194.277 150.828 197.696 150.374 200.762 150.896C194.707 151.72 181.881 151.425 176.384 149.13C169.731 146.352 165.324 140.924 162.68 134.384C161.927 131.591 161.408 128.977 161.451 126.063Z"/>
	<defs>
		<linearGradient id="gradient_0" gradientUnits="userSpaceOnUse" x1="192.17305" y1="154.07771" x2="192.18956" y2="169.63776">
			<stop offset="0" stop-color="#2E27A5"/>
			<stop offset="1" stop-color="#6040B1"/>
		</linearGradient>
	</defs>
	<path fill="url(#gradient_0)" d="M193.907 159.76C183.15 159.349 174.866 163.105 166.673 169.686C165.499 170.629 164.462 171.414 162.874 171.242C162.1 170.784 161.67 170.506 161.474 169.548C161.225 168.331 161.582 166.9 162.347 165.926C163.24 164.79 164.856 163.73 165.994 162.823C173.358 156.957 181.61 154.411 190.888 153.619Q191.287 153.599 191.687 153.584C201.514 153.216 214.268 157.594 221.479 164.417C222.545 165.425 223.518 166.714 223.517 168.243C223.516 169.13 223.233 169.828 222.555 170.413C221.565 171.266 220.615 170.984 219.599 170.387C217.532 169.173 215.782 167.354 213.761 166.034C207.878 162.19 200.816 160.46 193.907 159.76Z"/>
	<path fill="#8956B8" d="M182.459 167.697C189.951 164.96 198.818 165.709 205.982 169.061C207.837 169.929 210.113 171.197 211.614 172.619L211.456 173.236C210.744 172.44 209.847 172.62 208.927 172.229C207.585 171.66 206.321 170.708 204.986 170.07C201.944 168.618 198.522 167.829 195.24 167.13L195.534 167.088C191.726 166.363 183.452 168.043 182.459 167.697Z"/>
	<defs>
		<linearGradient id="gradient_1" gradientUnits="userSpaceOnUse" x1="192.85312" y1="166.52155" x2="192.20923" y2="178.34035">
			<stop offset="0" stop-color="#5D3EAF"/>
			<stop offset="1" stop-color="#8051B6"/>
		</linearGradient>
	</defs>
	<path fill="url(#gradient_1)" d="M211.614 172.619C212.306 173.078 213.118 173.771 213.566 174.484C214.179 175.462 214.241 176.939 213.993 178.028C213.711 178.368 213.563 178.659 213.135 178.812C212.483 179.046 211.606 178.956 210.965 178.719C209.822 178.296 208.8 177.211 207.774 176.538C206.256 175.543 204.567 174.674 202.894 173.963C194.881 170.555 186.702 171.038 179.148 175.415C177.474 176.385 175.877 178.237 174.073 178.841C173.38 179.073 172.93 179.064 172.279 178.753C171.561 178.409 170.898 177.676 170.688 176.901C170.479 176.134 170.727 175.417 171.138 174.762C173.055 171.703 178.965 168.627 182.459 167.697C183.452 168.043 191.726 166.363 195.534 167.088L195.24 167.13C198.522 167.829 201.944 168.618 204.986 170.07C206.321 170.708 207.585 171.66 208.927 172.229C209.847 172.62 210.744 172.44 211.456 173.236L211.614 172.619Z"/>
	<path fill="#000162" d="M240.085 175.174C242.984 175.386 246.119 175.315 249.027 175.172C252.533 176.05 256.069 177.567 258.94 179.782C262.82 182.775 266.23 186.575 269.688 190.041L286.039 206.431C305.691 226.117 325.186 246.018 345.098 265.439C322.178 265.369 299.172 265.958 276.264 265.373C273.688 263.271 271.343 260.57 268.987 258.206L255.158 244.369L210.026 199.32C210.324 206.385 210.11 213.523 210.111 220.599L210.138 265.427L161.375 265.416C161.068 252.176 161.05 238.788 161.275 225.545C161.402 218.089 163.481 211.419 169.004 206.168C176.954 198.609 184.873 199.472 194.857 199.41C199.95 199.378 205.035 199.28 210.129 199.375C211.996 197.933 213.671 196.035 215.324 194.347C223.266 186.238 228.711 178.44 240.085 175.174Z"/>
	<path fill="#8956B8" d="M194.476 183.828C189.005 183.013 184.988 187.187 181.463 186.572C180.695 186.03 180.208 185.631 179.783 184.783C179.697 184.069 179.7 183.646 180.118 183.037C182.141 180.094 186.929 178.8 190.219 178.161C192.407 177.993 194.337 178.04 196.491 178.517C198.931 179.059 203.555 180.552 204.861 182.882C205.154 183.405 205.248 184.014 205.055 184.589C204.775 185.417 203.988 186.339 203.161 186.655C201.517 187.283 196.286 184.541 194.476 183.828Z"/>
	<path fill="#B26CC5" d="M192.713 196.377C192.317 196.314 191.953 196.236 191.574 196.101C190.447 195.701 189.593 195.053 189.125 193.924Q188.982 193.572 188.91 193.199Q188.839 192.825 188.843 192.445Q188.846 192.065 188.925 191.693Q189.004 191.321 189.154 190.972C189.796 189.444 190.816 188.871 192.272 188.317C192.579 188.372 192.517 188.354 192.881 188.458C194.136 188.814 195.089 189.502 195.674 190.69C196.164 191.687 196.156 192.824 195.737 193.847C195.141 195.304 194.09 195.859 192.713 196.377Z"/>
	<path fill="#000162" d="M386.195 245.357C388.922 247.453 391.984 249.917 394.27 252.478C394.384 253.218 394.224 253.726 393.801 254.35C391.431 257.854 384.008 260.467 380.134 261.165C372.544 262.535 364.475 261.247 358.137 256.725C352.599 252.774 349.293 247.09 348.207 240.435C346.974 232.883 347.927 224.902 352.543 218.6Q352.917 218.083 353.316 217.585Q353.715 217.087 354.138 216.61Q354.562 216.133 355.009 215.677Q355.456 215.222 355.926 214.79Q356.395 214.358 356.886 213.95Q357.377 213.542 357.887 213.159Q358.398 212.776 358.927 212.419Q359.456 212.062 360.002 211.733Q360.549 211.403 361.111 211.102Q361.673 210.8 362.25 210.527Q362.827 210.254 363.417 210.01Q364.006 209.766 364.608 209.553Q365.209 209.339 365.82 209.156Q366.431 208.972 367.051 208.82Q367.671 208.668 368.298 208.547Q368.924 208.426 369.556 208.337C377.593 207.163 385.138 208.862 391.681 213.695C391.382 215.607 387.124 219.531 385.625 220.617C385.291 220.86 384.989 220.966 384.596 221.076C383.533 220.874 382.474 220.62 381.388 220.638C379.37 219.662 377.088 219.159 374.852 219.064C370.911 218.897 367.207 220.117 364.307 222.832C361.088 225.846 359.579 230.107 359.454 234.456C359.331 238.737 360.634 243.175 363.627 246.325C366.4 249.243 370.318 250.609 374.291 250.642C379.113 250.683 382.852 248.701 386.195 245.357Z"/>
	<path fill="#000162" d="M433.505 243.746C433.959 243.288 434.401 242.851 434.644 242.243C436.282 238.155 437.433 233.72 438.817 229.527C440.987 222.948 443.374 216.368 445.257 209.705C447.402 208.351 454.508 209.315 457.323 209.088C457.439 209.483 457.516 209.898 457.455 210.31C457.149 212.356 453.033 224.872 452.06 226.423C451.856 226.748 451.657 226.915 451.363 227.156C451.47 227.412 451.551 227.632 451.528 227.917C451.279 230.983 447.544 239.785 446.379 243.14C444.642 248.142 443.291 253.317 441.251 258.208C440.868 259.126 440.553 259.89 439.814 260.583Q433.594 260.528 427.373 260.541C427.432 260.217 427.469 259.983 427.436 259.652C427.148 256.802 421.812 242.913 420.532 239.198L414.069 220.236C413.003 217.104 412.061 213.826 410.805 210.769C410.535 210.11 410.164 209.626 409.619 209.17Q415.938 209.065 422.257 209.17C422.519 209.39 422.7 209.538 422.878 209.834C424.672 212.816 428.739 227.315 430.104 231.515C431.216 234.939 432.86 238.627 433.599 242.129C433.72 242.705 433.665 243.188 433.505 243.746Z"/>
	<path fill="#000162" fill-opacity="0.97647059" d="M391.681 213.695L392.216 214.139C392.273 216.279 386.725 221.333 385.214 222.966C383.965 222.177 382.712 221.29 381.388 220.638C382.474 220.62 383.533 220.874 384.596 221.076C384.989 220.966 385.291 220.86 385.625 220.617C387.124 219.531 391.382 215.607 391.681 213.695Z"/>
	<path fill="#00003D" d="M407.582 285.277C405.556 285.622 402.978 285.467 401.299 284.162C400.66 283.666 400.25 282.72 400.173 281.929C400.12 281.387 400.135 281.287 400.466 280.871C402.528 280.111 404.734 282.863 406.633 282.519C407.361 282.387 407.668 282.117 408.12 281.571C408.237 280.847 408.272 280.798 407.919 280.108C406.445 279.149 404.644 278.93 402.997 278.379C401.893 278.01 400.848 277.38 400.37 276.269C399.89 275.155 399.955 273.474 400.416 272.363C401.005 270.942 402.418 270.455 403.719 269.872C404.57 269.787 405.487 269.711 406.34 269.783C407.868 269.912 409.662 270.393 410.676 271.59C410.907 272.432 410.882 272.615 410.66 273.465C409.014 274.844 406.295 272.349 404.26 272.441C403.59 272.885 403.644 273.038 403.424 273.784C404.119 275.421 408.371 276.142 409.991 277.075C411.018 277.667 412.126 278.574 412.394 279.787C412.643 280.913 412.074 281.992 411.465 282.894C410.341 284.556 409.5 284.897 407.582 285.277Z"/>
	<path fill="#000162" d="M183.115 285.374C181.032 285.42 179.154 285.34 177.408 284.046C175.745 282.814 174.775 280.986 174.497 278.954C174.194 276.736 174.562 274.437 175.963 272.641C177.286 270.945 178.913 270.381 180.984 270.17C182.54 270.096 184.062 270.193 185.442 270.993C187.023 271.909 188.066 273.422 188.561 275.154C189.196 277.374 188.967 279.945 187.829 281.966C186.729 283.919 185.217 284.784 183.115 285.374ZM180.352 272.999C178.943 274.298 178.335 275.901 178.282 277.811C178.246 279.123 178.587 280.512 179.5 281.496C180.148 282.194 181.045 282.46 181.979 282.437C182.267 282.43 182.554 282.4 182.84 282.368C184.301 281.204 184.884 279.935 185.09 278.09C185.248 276.676 184.896 275.161 183.94 274.077C183.27 273.316 182.405 272.978 181.404 272.964C181.053 272.96 180.702 272.979 180.352 272.999Z"/>
	<path fill="#000162" d="M199.996 285.394C198.108 285.453 196.276 285.442 194.605 284.444C192.842 283.392 191.687 281.763 191.211 279.777C190.688 277.592 190.936 275.107 192.166 273.195C193.321 271.399 194.812 270.617 196.852 270.185C198.389 270.076 200.034 270.021 201.451 270.707C203.226 271.568 204.474 273.125 205.066 274.985C205.756 277.154 205.608 279.736 204.543 281.761C203.53 283.687 202.023 284.732 199.996 285.394ZM197.056 272.971C195.614 274.09 194.98 275.566 194.807 277.35C194.67 278.764 195.044 280.34 196.026 281.403C196.762 282.202 197.59 282.451 198.652 282.466Q198.962 282.469 199.272 282.459C200.749 281.317 201.397 279.884 201.593 278.039C201.734 276.723 201.416 275.283 200.584 274.233C200.073 273.589 199.329 273.087 198.499 272.984C198.026 272.926 197.532 272.952 197.056 272.971Z"/>
	<path fill="#000162" d="M311.514 280.146C311.901 280.207 312.361 280.258 312.72 280.419C313.359 280.705 313.56 281.085 313.778 281.702C313.696 282.095 313.619 282.432 313.392 282.771C312.556 284.024 310.767 284.835 309.335 285.156C307.309 285.61 304.956 285.392 303.217 284.187C301.783 283.194 300.949 281.632 300.648 279.944C300.2 277.432 300.684 274.705 302.203 272.628C303.408 270.981 304.755 270.487 306.699 270.166C308.124 270.097 309.613 270.012 310.917 270.703C311.839 271.191 312.893 271.878 313.153 272.95C313.344 273.741 313.463 274.112 313.029 274.797C311.524 274.978 309.797 273.855 308.345 273.425C307.511 273.179 306.529 273.116 305.767 273.606C304.996 274.102 304.671 275.051 304.54 275.914C304.288 277.581 304.352 280.027 305.44 281.397C305.888 281.96 306.651 282.404 307.377 282.456C308.843 282.562 310.421 281.003 311.514 280.146Z"/>
	<path fill="#00003D" d="M429.786 285.319C428.28 285.49 426.611 285.341 425.258 284.615C423.542 283.694 422.418 282.007 421.921 280.158C421.313 277.893 421.538 275.21 422.771 273.185C423.836 271.437 425.177 270.697 427.12 270.226C429.279 270.034 431.263 270.031 433.103 271.378C434.736 272.573 435.645 274.385 435.914 276.367C436.217 278.606 435.803 281.144 434.355 282.94C433.131 284.458 431.682 285.097 429.786 285.319ZM427.367 273.154C426.002 274.427 425.592 275.833 425.523 277.646C425.472 278.98 425.633 280.723 426.643 281.697C427.196 282.23 428.134 282.463 428.889 282.391C429.175 282.363 429.207 282.335 429.437 282.24C430.345 281.999 430.862 281.71 431.361 280.891C432.23 279.462 432.472 277.518 431.992 275.923C431.676 274.872 431.03 273.781 430.013 273.278C429.155 272.854 428.269 272.987 427.367 273.154Z"/>
	<path fill="#000162" d="M167.826 276.853C168.888 278.255 169.845 279.654 170.724 281.178C170.833 282.175 170.981 282.604 170.505 283.518L168.748 284.704C167.976 282.853 166.308 280.821 165.202 279.107C164.296 280.792 163.92 284.043 162.74 285.206C162.047 285.428 161.997 285.523 161.297 285.232C160.606 284.388 160.364 283.523 160.213 282.466C159.865 280.027 159.431 272.961 161.039 270.989C161.453 270.482 161.615 270.532 162.228 270.473C162.505 270.623 162.804 270.788 163.027 271.014C164.171 272.173 163.755 275.632 163.736 277.184C165.43 275.325 166.872 272.335 168.921 270.938C169.599 270.476 169.999 270.597 170.749 270.702L171.125 271.234C171.019 273.303 169.06 275.289 167.826 276.853Z"/>
	<path fill="#00003D" d="M206.521 272.739L206.396 271.942C206.584 271.517 206.596 271.277 207.009 271.023C208.541 270.082 212.658 270.257 214.403 270.609C215.649 270.559 216.971 270.346 218.109 270.93C218.61 271.715 218.592 271.95 218.62 272.896C216.532 272.595 214.507 272.309 212.486 271.678C210.26 272.807 208.83 272.396 206.521 272.739Z"/>
	<path fill="#00003D" d="M224.699 273.18C223.986 273.287 223.271 273.395 222.548 273.345C221.638 273.283 220.855 272.996 220.266 272.29L220.427 271.804C222.041 270.351 223.637 270.535 225.664 270.502C227.583 270.519 230.89 270.143 232.467 271.316C232.631 271.964 232.677 272.104 232.493 272.773C231.483 273.49 229.98 272.885 228.772 273.372C227.778 274.796 229.057 282.437 227.943 285.199C227.652 285.253 227.357 285.308 227.063 285.34C226.532 285.398 226.007 285.32 225.599 284.958C223.893 283.439 224.707 275.525 224.699 273.18Z"/>
	<path fill="#000162" d="M251.356 275.351C251.43 277.541 251.707 279.976 251.487 282.152C251.357 283.428 250.793 285.004 249.78 285.816C249.464 285.788 249.267 285.855 249.042 285.598C247.353 283.671 247.813 277.959 247.929 275.449C248.03 273.257 248.159 271.792 249.861 270.255C249.937 270.278 250.013 270.3 250.088 270.325C253.826 271.532 256.04 277.231 257.731 280.449C257.656 278.8 257.574 277.143 257.562 275.492C257.55 273.819 257.738 271.489 258.971 270.235L259.449 270.257C259.63 270.413 259.775 270.542 259.906 270.744C261.31 272.904 261.466 281.358 260.818 283.763C260.533 284.822 259.744 285.254 258.855 285.761C255.312 284.249 253.075 278.641 251.356 275.351Z"/>
	<path fill="#000162" d="M320.05 282.088C319.393 283.518 318.831 285.029 317.306 285.716C316.89 285.536 316.972 285.653 316.769 285.301C315.597 283.271 317.411 278.796 318.114 276.769C318.963 274.324 319.73 271.565 322.207 270.361C322.741 270.459 323.344 270.544 323.837 270.775C325 271.32 325.8 273.184 326.267 274.298C327.325 276.822 329.766 282.348 328.692 284.984C328.069 285.394 327.998 285.411 327.251 285.41C326.119 284.688 325.855 283.253 325.005 282.238L324.096 282.196L320.05 282.088ZM322.622 274.084C321.953 275.542 320.977 277.183 321.102 278.821L321.48 279.312L322.9 279.366L323.835 279.31C324.436 277.968 323.585 276.027 323.082 274.72C322.972 274.433 322.857 274.28 322.622 274.084Z"/>
	<defs>
		<linearGradient id="gradient_2" gradientUnits="userSpaceOnUse" x1="343.327" y1="280.58725" x2="330.89615" y2="275.55255">
			<stop offset="0" stop-color="#000026"/>
			<stop offset="1" stop-color="#000045"/>
		</linearGradient>
	</defs>
	<path fill="url(#gradient_2)" d="M342.749 284.049C341.332 285.074 340.025 285.24 338.333 285.401C336.545 285.572 333.617 285.975 332.161 284.776C331.817 282.401 331.229 273.044 332.248 271.216C332.568 270.641 333.137 270.648 333.724 270.493C336.294 270.451 338.998 270.342 341.471 271.16C342.399 271.466 343.042 271.818 343.478 272.71C343.633 274.377 342.537 275.834 341.717 277.206C341.735 278.484 343.536 278.823 343.871 280.27C344.168 281.556 343.355 282.966 342.749 284.049ZM335.457 272.819L335.426 276.502C336.765 276.378 338.324 276.379 339.59 275.942C339.839 275.015 340.042 274.643 339.71 273.712C338.673 272.88 336.76 272.971 335.457 272.819ZM335.474 278.676L335.393 283.03C336.894 282.833 338.517 282.737 339.973 282.339C340.226 281.452 340.506 280.797 340.128 279.901C339.046 278.767 336.951 278.839 335.474 278.676Z"/>
	<path fill="#000162" d="M346.906 285.258C346.831 281.898 346.02 272.738 347.841 270.275C348.532 270.436 349.214 270.457 349.715 271.006C351.391 272.841 350.534 280.025 350.386 282.523C352.063 282.422 355.487 281.948 356.826 283.05C357.278 283.421 357.245 283.632 357.324 284.176L356.888 283.805L357.223 284.518C356.955 284.968 356.675 285.073 356.235 285.325Q351.568 285.627 346.906 285.258Z"/>
	<path fill="#000162" d="M390.126 275.207C389.305 277.774 388.627 280.729 387.37 283.107C386.89 284.015 386.053 285.28 384.986 285.504C384.288 285.651 383.675 285.431 383.129 284.996C381.334 283.563 378.493 274.778 378.284 272.302C378.21 271.427 378.838 270.858 379.382 270.252C379.669 270.323 379.981 270.419 380.25 270.545C382.33 271.519 384.076 279.188 384.892 281.509C385.672 278.331 386.345 275.065 387.8 272.11C388.273 271.15 388.673 270.553 389.715 270.211C390.201 270.479 390.403 270.706 390.648 271.215C391.291 272.55 390.565 273.899 390.126 275.207Z"/>
	<path fill="#000162" d="M395.866 285.532C394.813 285.434 394.563 285.495 393.779 284.816C392.631 282.409 392.998 278.957 393.064 276.352C393.116 274.3 392.861 271.755 394.445 270.245C394.903 270.381 395.481 270.515 395.863 270.809C396.741 271.485 396.831 273.589 396.915 274.612C397.127 277.158 397.46 283.664 395.866 285.532Z"/>
	<path fill="#000162" d="M447.61 279.772C449.466 277.27 447.516 273.387 449.069 270.517C449.523 270.501 449.965 270.536 450.417 270.566C450.724 270.816 450.993 271.039 451.16 271.409C452.17 273.635 452.093 282.181 451.047 284.451C450.69 285.226 450.353 285.263 449.608 285.48C445.687 284.877 444.914 278.23 441.705 276.236C441.629 276.189 441.551 276.146 441.474 276.101C442.406 277.888 442.335 281.512 442.01 283.472C441.834 284.538 441.577 284.765 440.751 285.342L440.178 285.443C439.636 285.165 439.335 285.099 439.088 284.475C438.394 282.719 438.542 273.975 439.276 272.21C439.672 271.256 440.108 271.007 441.003 270.661C442.175 270.8 442.879 271.372 443.638 272.238C444.893 273.673 447.757 277.857 447.61 279.772Z"/>
	<path fill="#000162" d="M236.268 282.04C235.941 282.83 235.58 283.751 235.077 284.452C234.631 285.075 234.2 285.58 233.431 285.731L233.121 285.508C232.754 284.767 232.656 284.084 232.679 283.267C232.775 279.834 235.101 273.015 237.58 270.655C238.719 270.561 239.726 270.526 240.626 271.342C242.87 273.377 245.246 280.53 245.177 283.513C245.156 284.426 244.953 284.879 244.329 285.506L243.501 285.492C242.812 285.081 242.611 284.734 242.259 284.018C241.859 283.203 241.725 282.47 240.841 282.139L236.268 282.04ZM238.734 274.037C238.106 275.424 237.149 277.278 237.453 278.812L237.854 279.336C238.427 279.322 239.002 279.316 239.574 279.273L240.189 279.26C240.515 278.448 239.554 275.251 239.083 274.455C238.938 274.21 238.912 274.204 238.734 274.037Z"/>
	<path fill="#000162" d="M267.869 282.087C267.358 283.196 266.929 284.385 265.992 285.209C265.267 285.47 265.244 285.521 264.47 285.263C264.087 284.744 263.954 284.381 263.945 283.728C263.907 280.932 267.082 272.565 269.015 270.669C269.971 270.569 270.89 270.401 271.737 270.976C274.253 272.683 276.091 279.219 276.542 282.11C276.687 283.039 276.823 284.505 276.181 285.26C275.89 285.602 275.722 285.515 275.303 285.56C273.871 284.879 273.616 283.777 273.071 282.367L272.483 282.129L267.869 282.087ZM270.464 274.076C269.814 275.526 268.884 277.138 268.834 278.745L269.074 279.346L270.206 279.572L271.455 279.358C272.059 278.188 271.633 276.93 271.249 275.737C271.061 275.151 270.94 274.496 270.464 274.076Z"/>
	<path fill="#000162" d="M290.614 283.467C290.467 283.584 290.32 283.702 290.168 283.812C288.099 285.314 283.626 285.994 281.151 285.44C280.659 285.33 280.111 285.125 279.864 284.656C279.031 283.07 279.28 272.51 279.821 270.702C283.156 270.355 287.103 270.207 289.99 272.209C291.525 273.273 292.533 274.858 292.782 276.714C293.103 279.103 291.993 281.598 290.614 283.467ZM283.362 272.858C283.22 276.169 283.205 279.458 283.251 282.771C284.688 282.505 286.241 282.325 287.571 281.704C288.363 280.269 289.188 278.105 288.73 276.464C288.452 275.466 287.547 274.467 286.652 273.969C285.662 273.417 284.418 273.26 283.362 272.858Z"/>
	<path fill="#000162" d="M359.491 285.423C359.113 282.535 358.635 274.203 359.308 271.64C359.458 271.067 359.456 271.006 359.963 270.713C360.671 270.852 361.502 270.91 362.112 271.299L360.971 271.241C363.794 272.065 366.629 272.181 369.401 272.935C369.317 272.966 369.233 272.998 369.148 273.027C367.227 273.694 364.079 272.783 362.869 274.422C362.817 275.19 362.777 275.69 363.119 276.392C363.705 276.583 364.179 276.64 364.793 276.655C364.118 277.181 363.8 277.251 363.617 278.109C364.727 279.013 366.946 278.92 368.342 279.033C366.81 279.417 365.314 279.087 363.901 279.397C363.458 279.495 363.144 279.788 362.958 280.2C362.634 280.917 362.724 281.521 363.013 282.214C364.508 282.925 366.374 282.192 367.974 282.405C368.842 282.521 369.038 282.757 369.584 283.373C369.696 284.126 369.807 284.309 369.447 285.002C367.853 285.891 361.656 285.435 359.491 285.423Z"/>
	<path fill="#00003D" d="M359.963 270.713C362.491 270.568 366.663 269.807 368.873 271.116C369.353 271.767 369.393 272.134 369.401 272.935C366.629 272.181 363.794 272.065 360.971 271.241L362.112 271.299C361.502 270.91 360.671 270.852 359.963 270.713Z"/>
	<path fill="#000162" d="M417.229 285.086C416.934 285.354 416.475 285.504 416.085 285.505C415.745 285.506 415.804 285.511 415.553 285.25C414.068 283.702 414.85 273.235 415.087 270.801C415.527 270.691 415.98 270.559 416.437 270.607C417.035 270.67 417.404 270.867 417.761 271.355C419.233 273.364 418.605 280.674 418.35 283.132C418.237 284.229 418.049 284.411 417.229 285.086Z"/>
	<path fill="#000162" d="M206.521 272.739C208.83 272.396 210.26 272.807 212.486 271.678C214.507 272.309 216.532 272.595 218.62 272.896C217.358 273.343 216.227 273.284 214.91 273.237C213.609 274.315 214.784 281.557 214.269 283.694C214.036 284.661 213.704 284.995 212.899 285.455C212.275 285.428 211.919 285.46 211.481 284.962C209.769 283.013 210.582 275.739 210.624 273.252C209.11 273.422 207.894 273.491 206.521 272.739Z"/>
	<path fill="#00003D" d="M364.793 276.655C365.831 276.605 366.658 276.581 367.664 276.922C368.168 277.402 368.483 277.646 368.457 278.41C368.447 278.673 368.404 278.795 368.342 279.033C366.946 278.92 364.727 279.013 363.617 278.109C363.8 277.251 364.118 277.181 364.793 276.655Z"/>
	<path fill="#00003D" d="M170.724 281.178C171.521 282.356 171.993 283.019 171.69 284.504C171.619 284.852 171.368 285.017 171.132 285.273C170.104 285.448 169.628 285.291 168.748 284.704L170.505 283.518C170.981 282.604 170.833 282.175 170.724 281.178Z"/>
</svg>
